<svg xmlns="http://www.w3.org/2000/svg" xmlns:xlink="http://www.w3.org/1999/xlink" width="24" height="24"><defs><path id="search_svg__a" d="M20.71 19.29l-3.4-3.39A7.92 7.92 0 0 0 19 11a8 8 0 1 0-8 8 7.92 7.92 0 0 0 4.9-1.69l3.39 3.4a1 1 0 0 0 1.42 0 1 1 0 0 0 0-1.42zM5 11a6 6 0 1 1 12 0 6 6 0 0 1-12 0z"/></defs><g fill="none" fill-rule="evenodd"><path d="M0 0h24v24H0z"/><mask id="search_svg__b" fill="#fff"><use xlink:href="#search_svg__a"/></mask><use fill="#231F20" fill-rule="nonzero" xlink:href="#search_svg__a"/><g fill="#14233D" mask="url(#search_svg__b)"><path d="M0 0h24v24H0z"/></g></g></svg>
